<svg xmlns="http://www.w3.org/2000/svg" version="1.1" xmlns:xlink="http://www.w3.org/1999/xlink" width="1000" height="1000"><g clip-path="url(#SvgjsClipPath1149)"><rect width="1000" height="1000" fill="#ffffff"></rect><g transform="matrix(3.2620041753653446,0,0,3.2620041753653446,0,0)"><svg xmlns="http://www.w3.org/2000/svg" version="1.1" xmlns:xlink="http://www.w3.org/1999/xlink" width="306.56" height="306.56"><svg xmlns:dc="http://purl.org/dc/elements/1.1/" xmlns:cc="http://creativecommons.org/ns#" xmlns:rdf="http://www.w3.org/1999/02/22-rdf-syntax-ns#" xmlns:svg="http://www.w3.org/2000/svg" xmlns="http://www.w3.org/2000/svg" xmlns:sodipodi="http://sodipodi.sourceforge.net/DTD/sodipodi-0.dtd" xmlns:inkscape="http://www.inkscape.org/namespaces/inkscape" version="1.1" id="svg1061" width="306.56" height="306.56" viewBox="0 0 306.56 306.56" sodipodi:docname="Chop_RedBl_transparent.svg" inkscape:version="1.0.2 (1.0.2+r75+1)" inkscape:export-filename="/home/jessica/chop_RedBl_transparent.png" inkscape:export-xdpi="229.22" inkscape:export-ydpi="229.22">
  <metadata id="metadata1067">
    <rdf:rdf>
      <cc:work rdf:about="">
        <dc:format>image/svg+xml</dc:format>
        <dc:type rdf:resource="http://purl.org/dc/dcmitype/StillImage"></dc:type>
        <dc:title></dc:title>
      </cc:work>
    </rdf:rdf>
  </metadata>
  <defs id="defs1065"><clipPath id="SvgjsClipPath1149"><rect width="1000" height="1000" x="0" y="0" rx="0" ry="0"></rect></clipPath></defs>
  <sodipodi:namedview pagecolor="#ffffff" bordercolor="#666666" borderopacity="1" objecttolerance="10" gridtolerance="10" guidetolerance="10" inkscape:pageopacity="0" inkscape:pageshadow="2" inkscape:window-width="1729" inkscape:window-height="913" id="namedview1063" showgrid="false" inkscape:zoom="2.59" inkscape:cx="124.03651" inkscape:cy="186.89112" inkscape:window-x="110" inkscape:window-y="27" inkscape:window-maximized="0" inkscape:current-layer="g1069" inkscape:pagecheckerboard="true" fit-margin-top="0" fit-margin-left="0" fit-margin-right="0" fit-margin-bottom="0"></sodipodi:namedview>
  <g inkscape:groupmode="layer" inkscape:label="Image" id="g1069" transform="translate(-0.12908931,0.07113776)">
    <path style="fill:none;stroke-width:0.32;fill-opacity:1;stroke:#000000;stroke-opacity:1" d="m 178.71018,55.418619 c 0.0263,-0.361501 35.70874,-28.449757 36.14165,-28.449757 0.33991,0 11.19725,11.915837 11.19725,12.288883 0,0.343895 -7.5331,5.833821 -11.92687,8.691994 -9.67162,6.291443 -12.92469,7.175229 -27.83313,7.561651 -4.47442,0.115974 -7.59132,0.07782 -7.5789,-0.09277 z" id="path1880"></path>
    <path style="fill:none;stroke-width:0.32;fill-opacity:1;stroke:#000000;stroke-opacity:1" d="m 161.90508,111.65155 c 8.01121,-7.30771 30.41449,-28.071678 30.49067,-28.259578 0.0587,-0.14471 -6.81734,-0.26311 -15.28,-0.26311 h -15.38667 v -2.72 -2.72 h 18.49856 18.49856 l 8.0791,-7.44 8.0791,-7.44 -22.17766,-0.16 -22.17766,-0.16 -0.0929,-2.63873 -0.0929,-2.638729 39.02979,-0.08127 39.02979,-0.08127 -7.83018,-8.920029 c -4.30659,-4.906016 -7.76588,-8.984317 -7.68731,-9.062889 0.2765,-0.276496 8.30179,1.239699 12.15035,2.295532 8.95137,2.455767 16.04887,6.19768 21.33534,11.248343 2.49162,2.380483 5.98507,7.034585 5.58589,7.441747 -0.10638,0.108512 -3.31516,1.87592 -7.13063,3.927574 l -6.9372,3.730279 -1.12,-1.177095 c -0.616,-0.647398 -1.66083,-1.787356 -2.32184,-2.533235 l -1.20184,-1.356144 -16.04429,0.08296 -16.04429,0.08296 4.09184,4.96 c 2.25052,2.728 4.32327,5.22847 4.60613,5.556605 0.48484,0.562445 0.3952,0.704134 -1.56571,2.474736 l -2.08,1.878131 26.48,0.0053 26.48,0.0052 v 2.72 2.720004 h -29.95547 -29.95547 l -4.04453,2.97564 c -11.39287,8.38197 -19.89278,13.57442 -28.40076,17.349528 -3.95059,1.75293 -13.9498,5.26971 -20.8448,7.33122 -4.02457,1.20329 -4.55681,1.31677 -4.06297,0.8663 z" id="path1878"></path>
    <path style="fill:none;stroke-width:0.32;fill-opacity:1;stroke:#000000;stroke-opacity:1" d="m 170.54715,153.57497 c -0.11933,-1.47064 -0.17221,-2.71093 -0.11751,-2.75619 0.0547,-0.0453 20.29539,-6.81 44.97932,-15.03274 l 44.87989,-14.95043 -3.56489,-4.69338 c -1.96069,-2.58135 -3.60056,-4.7373 -3.64417,-4.79099 -0.0436,-0.0537 -18.34735,5.89119 -40.67499,13.21083 -22.32765,7.31965 -40.92582,13.39272 -41.32928,13.49571 -0.72572,0.18527 -0.73256,0.15918 -0.64,-2.44236 l 0.0936,-2.62963 39.43951,-13.00846 c 21.69173,-7.15466 39.43973,-13.12618 39.44,-13.27005 6.4e-4,-0.40182 -7.16099,-9.786128 -7.4815,-9.803308 -0.15509,-0.008 -16.21109,5.241888 -35.68,11.667118 -19.46891,6.42523 -35.50601,11.68123 -35.63801,11.68 -0.32919,-0.003 -0.29525,-4.85963 0.0376,-5.38462 0.1473,-0.23231 15.41946,-5.36668 33.93814,-11.4097 18.51867,-6.043018 33.74712,-11.064118 33.841,-11.158008 0.0939,-0.0939 -1.28434,-2.07566 -3.06272,-4.40394 -1.77838,-2.32829 -3.19103,-4.27564 -3.13922,-4.32745 0.16886,-0.16886 6.1467,1.13631 9.02594,1.97068 11.71003,3.39344 21.67076,8.96793 29.39709,16.451978 3.0179,2.92327 7.22778,8.14513 8.76311,10.86961 l 0.72097,1.27936 -8.183,5.53493 -8.183,5.53493 -46.50045,15.52 -46.50046,15.52 z" id="path1876"></path>
    <path style="fill:none;stroke-width:0.32;fill-opacity:1;stroke:#000000;stroke-opacity:1" d="m 231.39138,168.12081 -6.96314,-7.26708 6.78675,-7.02243 c 3.73271,-3.86234 6.8682,-7.02244 6.96775,-7.02244 0.0995,0 3.30577,3.12235 7.12494,6.93855 l 6.94393,6.93856 -3.49004,3.70144 c -1.91952,2.0358 -5.04637,5.34373 -6.94854,7.35097 l -3.45851,3.64951 z" id="path1874"></path>
    <path style="fill:none;stroke-width:0.32;fill-opacity:1;stroke:#000000;stroke-opacity:1" d="m 249.97431,211.68886 0.0852,-8.56 h -12.1652 -12.16523 v 8.64385 8.64385 l 12.08,-0.0838 12.08,-0.0839 z" id="path1872"></path>
    <path style="fill:none;stroke-width:0.32;fill-opacity:1;stroke:#000000;stroke-opacity:1" d="m 257.40908,250.48886 v -12.48 h -15.84 -15.84 v 12.48 12.48 h 15.84 15.84 z" id="path1870"></path>
    <path style="fill:none;stroke-width:0.32;fill-opacity:1;stroke:#000000;stroke-opacity:1" d="m 209.08908,237.81462 c 0,-38.15092 -0.0285,-40.18302 -0.56,-39.97364 -2.5407,1.00082 -6.26386,0.264 -8.20833,-1.62444 -3.14208,-3.05155 -3.46057,-7.21424 -0.92138,-12.04277 0.48732,-0.9267 0.93487,-1.79291 0.99454,-1.92491 0.0597,-0.132 -1.2715,-0.24 -2.95816,-0.24 h -3.06667 v 32.16 c 0,17.688 0.0788,32.16 0.1751,32.16 0.0963,0 2.69691,-1.656 5.77911,-3.68 3.0822,-2.024 5.65377,-3.68 5.71461,-3.68 0.24444,0 -2.16129,7.57991 -3.37889,10.64613 -3.72939,9.39151 -9.15798,16.3367 -17.19115,21.99387 -3.24778,2.28717 -8.86682,5.42845 -9.72291,5.43551 -0.44214,0.004 -10.14998,-10.38481 -10.41012,-11.13997 -0.0408,-0.11854 2.73116,-2.04485 6.16,-4.28068 l 6.23425,-4.06514 -0.0188,-32.57486 c -0.0146,-25.33109 -0.10358,-32.44125 -0.4,-31.97401 -2.41354,3.80444 -5.98483,7.1701 -9.82118,9.25569 -2.0524,1.11577 -5.40485,2.28528 -5.70124,1.98889 -0.0838,-0.0838 1.93291,-8.32411 4.4816,-18.31176 l 4.63399,-18.15937 10.6567,-4.0966 c 5.86119,-2.25314 10.69971,-4.0536 10.75228,-4.00103 0.0526,0.0526 -1.53033,3.87282 -3.51755,8.48945 l -3.61314,8.39388 h 9.54939 9.54938 l 0.52147,-1.2 c 0.28681,-0.66 1.20164,-3.12236 2.03295,-5.47192 l 1.51147,-4.27192 2.0288,-1.08396 c 1.11583,-0.59619 2.06931,-1.04345 2.11884,-0.99393 0.0495,0.0495 0.46343,2.17167 0.91979,4.71589 0.45637,2.54421 0.93459,5.20184 1.06273,5.90584 l 0.23298,1.28 24.94978,0.0698 c 13.72238,0.0384 28.52644,0.0744 32.89791,0.08 l 7.94813,0.0102 -0.21601,1.36 c -0.42799,2.6948 -1.49748,6.46027 -2.40056,8.45196 -2.50692,5.5289 -5.77837,8.33698 -12.29574,10.55415 -1.21883,0.41464 -2.26283,0.75389 -2.32,0.75389 -0.0572,0 -0.10395,-3.528 -0.10395,-7.84 v -7.84 l -23.92,1.4e-4 -23.92,1.4e-4 -0.015,4.39986 c -0.0132,3.87552 -0.24761,5.66708 -0.99696,7.61988 -0.1495,0.38954 0.71079,0.45998 5.6177,0.45998 h 5.79424 v 1.92 1.92 h 20.32 20.32 v 14.24 14.24 h -20.32 -20.32 v 3.36 3.36 h 24.16 24.16 v 17.92 17.92 l -4.72,0.0502 c -2.596,0.0276 -13.468,0.009 -24.16,-0.0415 l -19.44,-0.0917 v 4.84146 4.84145 h -8.32 -8.32 z" id="path1868"></path>
    <path style="fill:none;stroke-width:0.32;fill-opacity:1;stroke:#000000;stroke-opacity:1" d="M 133.88908,141.36886 V 91.768862 h -16.16 -16.16 v 49.599998 49.6 h 16.16 16.16 z" id="path1866"></path>
    <path style="fill:none;stroke-width:0.32;fill-opacity:1;stroke:#000000;stroke-opacity:1" d="M 79.809084,141.36886 V 91.768862 h -17.6 -17.6 v 49.599998 49.6 h 17.6 17.6 z" id="path1864"></path>
    <path style="fill:none;stroke-width:0.32;fill-opacity:1;stroke:#000000;stroke-opacity:1" d="m 79.730324,237.76886 -0.08123,-40.24 -17.52,-0.0827 -17.52,-0.0827 v 6.56274 6.56273 h -8.16 -8.16 v -65.12 -65.119998 h 8.16 8.16 v 3.04273 3.04274 l 17.52,-0.0827 17.52,-0.0827 0.0817,-28.88 0.0817,-28.88 h 10.8766 10.876596 l 0.0817,28.88 0.0817,28.88 17.12,0.0607 c 9.416,0.0334 20.396,0.0694 24.4,0.08 l 7.28,0.0193 v 55.519998 55.52 l -7.28,0.0193 c -4.004,0.0106 -14.984,0.0466 -24.4,0.08 l -17.12,0.0607 -0.0812,40.24 -0.0812,40.24 H 90.689094 79.811564 Z" id="path1862"></path>
    <path style="fill:none;stroke-width:0.32;fill-opacity:1;stroke:#000000;stroke-opacity:1" d="m 273.32809,273.12987 18.961,-18.95899 V 152.37334 50.575812 L 273.49785,32.612337 254.70662,14.648862 H 134.77785 14.849089 V 134.56785 254.48684 l 18.798982,18.80101 18.798983,18.80101 H 153.40707 254.36709 Z" id="path1860"></path>
    <path style="fill:none;stroke-width:0.32;fill-opacity:1;stroke:#000000;stroke-opacity:1" d="M 21.328187,285.28796 0.12908931,264.08707 V 132.00796 -0.07113776 H 132.20999 264.29089 l 21.1991,21.20089576 21.1991,21.200896 V 153.36885 264.40706 l -21.03909,21.0409 -21.03909,21.0409 H 153.5691 42.527284 Z" id="path1075"></path>
    <path style="fill:#dd2f26;fill-opacity:1;stroke:#dd2f26;stroke-width:0.3861;stroke-opacity:1" d="M 21.392836,285.10659 0.25515657,263.96629 V 132.21084 0.45538364 H 132.20629 264.15743 L 285.10204,21.402646 306.04666,42.349909 V 153.35378 264.35765 l -20.94726,20.94462 -20.94726,20.94462 H 153.34133 42.530516 Z m 252.123424,-11.7733 19.01689,-19.01398 V 152.37423 50.429156 L 273.71076,32.408452 254.88836,14.387747 134.71462,14.371372 14.540871,14.354998 V 134.72031 255.08563 l 18.627851,18.63082 18.627852,18.63083 h 101.351396 101.3514 z" id="path1902" transform="translate(0.12908931,-0.07113776)"></path>
    <path style="fill:#000000;fill-opacity:1;stroke:#000000;stroke-width:0.3861;stroke-opacity:1" d="m 80.02107,237.47027 v -40.15444 l -13.030888,-0.002 c -7.166988,-7.7e-4 -15.246139,-0.11455 -17.953668,-0.25263 l -4.92278,-0.25109 v 6.62329 6.62329 H 36.391727 28.669719 V 145.38533 80.713517 h 7.722008 7.722007 v 3.150085 3.150089 l 7.818533,-0.253321 c 4.300193,-0.139324 12.379344,-0.253776 17.953668,-0.254332 l 10.135135,-0.001 V 57.740544 28.976065 h 10.617761 10.617759 v 28.764479 28.764479 h 13.83689 c 7.61029,0 18.55623,0.114788 24.32432,0.255085 l 10.48744,0.255085 v 54.896827 54.89682 l -6.08108,0.25221 c -3.3446,0.13871 -14.29054,0.25279 -24.32433,0.2535 l -18.24324,0.001 v 40.15444 40.15444 H 90.638831 80.02107 Z m 0,-95.94594 V 91.524328 H 62.067402 44.113734 v 50.000002 50 H 62.067402 80.02107 Z m 54.05405,0 V 91.524328 h -16.40926 -16.40927 v 50.000002 50 h 16.40927 16.40926 z" id="path1908" transform="translate(0.12908931,-0.07113776)"></path>
    <path style="fill:#000000;fill-opacity:1;stroke:#000000;stroke-width:0.3861;stroke-opacity:1" d="m 165.79277,108.58622 c 1.56109,-1.44607 7.60173,-7.04936 13.42365,-12.451738 5.82192,-5.402378 11.25269,-10.401776 12.06838,-11.109768 0.81569,-0.707992 1.38471,-1.446409 1.26449,-1.640927 -0.12638,-0.204482 -6.64212,-0.353668 -15.44676,-0.353668 h -15.22818 v -2.509652 -2.509653 h 18.53523 18.53523 l 8.00917,-7.389517 c 4.40505,-4.064234 8.06709,-7.539137 8.13787,-7.722007 0.0708,-0.18287 -2.70913,-0.33272 -6.1776,-0.333 -3.46847,-2.81e-4 -13.4733,-0.11542 -22.23295,-0.255867 L 170.75466,62.055065 V 59.80128 57.547494 h 39.02831 c 23.08639,0 38.97575,-0.142536 38.89962,-0.348951 -0.0708,-0.191922 -3.34299,-4.03487 -7.27156,-8.539884 -3.92857,-4.505014 -7.20077,-8.344125 -7.27155,-8.531358 -0.20702,-0.54756 1.17059,-0.403168 6.11647,0.641094 5.61966,1.18652 11.32219,3.126738 15.80082,5.37604 3.56242,1.789159 8.72638,5.455874 10.68584,7.587588 1.98785,2.1626 4.39815,5.398156 4.39815,5.904023 0,0.261145 -2.99121,2.096293 -6.64713,4.078107 l -6.64713,3.603297 -2.18469,-2.375325 -2.18469,-2.375326 h -16.45776 c -9.05176,0 -16.45775,0.0942 -16.45775,0.209331 0,0.115132 2.02181,2.648374 4.4929,5.629427 l 4.49291,5.420096 -2.06659,2.092581 -2.06659,2.09258 h 26.72427 26.72426 v 2.509653 2.509652 h -30.0949 -30.09491 l -5.03021,3.674398 c -9.99231,7.299047 -19.33031,12.982595 -26.57822,16.176773 -4.98775,2.19811 -22.59112,8.33416 -23.90943,8.33416 -0.11037,0 1.07658,-1.18315 2.63767,-2.62923 z" id="path1910" transform="translate(0.12908931,-0.07113776)"></path>
    <path style="fill:#000000;fill-opacity:1;stroke:#000000;stroke-width:0.3861;stroke-opacity:1" d="m 179.84733,54.904591 c 1.20809,-1.074719 22.00319,-17.484392 31.52327,-24.875409 l 3.35725,-2.606438 5.13696,5.625045 c 2.82533,3.093774 5.17736,5.832267 5.22675,6.085541 0.17358,0.890223 -12.60695,9.736895 -17.88313,12.378685 -3.70425,1.854723 -7.59757,2.857423 -12.90165,3.322743 -5.40432,0.474114 -14.96582,0.520292 -14.45945,0.06983 z" id="path1912" transform="translate(0.12908931,-0.07113776)"></path>
    <path style="fill:#000000;fill-opacity:1;stroke:#000000;stroke-width:0.3861;stroke-opacity:1" d="m 170.75466,153.3911 v -2.22588 l 44.99816,-15.07833 44.99815,-15.07833 -3.73244,-4.89655 c -2.05285,-2.69311 -3.88723,-4.89656 -4.07641,-4.89656 -0.56123,0 -21.34695,6.6774 -52.65078,16.91404 l -29.34363,9.59563 -0.1171,-2.1017 c -0.0644,-1.15594 -0.0644,-2.15344 0,-2.21667 0.0644,-0.0632 15.66729,-5.257 34.67309,-11.5417 38.2204,-12.63845 43.7004,-14.53073 43.91108,-15.1628 0.12985,-0.38953 -6.49061,-9.507645 -7.23921,-9.970304 -0.32431,-0.200433 -6.47115,1.775788 -46.9369,15.090294 -13.18438,4.33808 -24.08689,7.88742 -24.2278,7.88742 -0.14092,0 -0.25621,-1.03722 -0.25621,-2.30494 v -2.30493 l 33.97684,-11.23337 c 18.68725,-6.178348 33.97683,-11.369008 33.97683,-11.534797 0,-0.165789 -1.3,-2.065832 -2.88889,-4.222319 -1.58889,-2.156486 -2.67479,-3.919518 -2.41313,-3.91785 0.26167,0.0017 2.47383,0.501107 4.91592,1.109863 13.26434,3.306501 25.2485,9.996472 33.41502,18.653413 2.84473,3.01557 7.50355,9.12363 7.50848,9.84417 0.002,0.25295 -3.5152,2.83926 -7.81539,5.74737 l -7.81854,5.28746 -46.07471,15.39163 c -25.34109,8.4654 -46.23395,15.39163 -46.42857,15.39163 -0.19462,0 -0.35386,-1.00165 -0.35386,-2.22589 z" id="path1914" transform="translate(0.12908931,-0.07113776)"></path>
    <path style="fill:#000000;fill-opacity:1;stroke:#000000;stroke-width:0.3861;stroke-opacity:1" d="m 231.65271,168.05264 c -3.56206,-3.76046 -6.49145,-6.98655 -6.50975,-7.16911 -0.0183,-0.18255 2.88997,-3.27085 6.46284,-6.86287 l 6.49612,-6.53096 6.65151,6.64336 6.65151,6.64336 -2.28872,2.53612 c -1.25879,1.39486 -4.24583,4.57038 -6.63788,7.0567 l -4.34916,4.52059 z" id="path1916" transform="translate(0.12908931,-0.07113776)"></path>
    <path style="fill:#000000;fill-opacity:1;stroke:#000000;stroke-width:0.3861;stroke-opacity:1" d="m 209.3647,240.03656 c 0,-20.67348 -0.11327,-38.67187 -0.25171,-39.99643 l -0.25172,-2.40828 -1.68727,0.25302 c -4.10002,0.61484 -8.05663,-1.98837 -8.98558,-5.91197 -0.47815,-2.01952 0.10582,-5.00508 1.52193,-7.78087 0.42572,-0.83449 0.77404,-1.69791 0.77404,-1.91873 0,-0.2465 -1.27017,-0.40148 -3.29045,-0.40148 h -3.29045 l 0.10512,32.20733 c 0.0578,17.71404 0.21877,32.32093 0.35767,32.45976 0.1389,0.13883 2.56856,-1.24502 5.39925,-3.07522 2.83069,-1.8302 5.19973,-3.16856 5.26454,-2.97414 0.20784,0.62352 -2.62168,8.64049 -4.32881,12.26494 -4.4538,9.456 -11.51925,16.69956 -21.92917,22.48198 -1.21782,0.67647 -2.46252,1.22994 -2.76598,1.22994 -0.30347,0 -2.73561,-2.28784 -5.40476,-5.08409 -3.74129,-3.91945 -4.75687,-5.19993 -4.43336,-5.58973 0.2308,-0.2781 3.03368,-2.20357 6.22862,-4.27884 l 5.809,-3.77321 -0.20877,-32.35845 c -0.11482,-17.79715 -0.33265,-32.47862 -0.48407,-32.62548 -0.15141,-0.14687 -0.73489,0.33809 -1.29663,1.07769 -2.09426,2.75738 -4.18515,4.80288 -6.76136,6.6146 -2.53343,1.78163 -6.68515,3.68241 -7.11165,3.25592 -0.15837,-0.15838 6.68946,-28.00909 8.41212,-34.21279 l 0.38207,-1.37592 9.87761,-3.77394 c 5.43268,-2.07566 9.97697,-3.67456 10.09842,-3.55311 0.12145,0.12146 -1.21462,3.56824 -2.96904,7.65951 -1.75443,4.09128 -3.27599,7.65587 -3.38126,7.92132 -0.15014,0.37859 1.961,0.48262 9.79397,0.48262 h 9.98536 l 0.8499,-2.22007 c 0.46745,-1.22105 1.38346,-3.70803 2.03559,-5.52664 1.12408,-3.13476 1.2754,-3.35014 2.91261,-4.14556 0.94981,-0.46145 1.73791,-0.79783 1.75135,-0.7475 0.0134,0.0503 0.49422,2.61082 1.0684,5.68997 l 1.04397,5.59845 5.59183,0.24106 c 3.07551,0.13258 17.88762,0.26289 32.91579,0.28958 l 27.32396,0.0485 -0.23516,1.06178 c -2.14894,9.70275 -5.05027,14.14285 -11.16951,17.09342 -1.69884,0.81914 -3.5666,1.60554 -4.15058,1.74754 l -1.06178,0.2582 v -7.76387 -7.76386 h -24.28051 -24.28051 l -0.21694,5.30888 c -0.11931,2.91988 -0.3325,5.87355 -0.47374,6.5637 l -0.25679,1.25483 h 5.64228 5.64228 v 1.9305 1.9305 h 20.27027 20.27027 v 13.89962 13.89961 h -20.27027 -20.27027 v 3.66796 3.66795 h 24.13127 24.13127 v 17.51705 17.51705 l -1.44787,0.24106 c -0.79633,0.13258 -11.65541,0.12691 -24.13128,-0.0126 l -22.68339,-0.25367 v 4.88938 4.88938 h -7.91506 -7.91506 z m 48.26255,10.56113 v -12.74132 h -16.21622 -16.21621 v 12.74132 12.74131 h 16.21621 16.21622 z m -9.36294,-29.97992 2.02703,-0.24347 v -8.82653 -8.82653 h -12.54826 -12.54826 v 9.07336 9.07336 l 10.52123,-0.003 c 5.78668,-0.002 11.4334,-0.11292 12.54826,-0.24683 z" id="path1918" transform="translate(0.12908931,-0.07113776)"></path>
  </g>
</svg></svg></g></g></svg>