<svg xmlns="http://www.w3.org/2000/svg" width="400" height="400" fill="none" xmlns:v="https://vecta.io/nano"><path fill="#effafe" d="M0 0h400v400H0z"/><path d="M71.836 143.199h28.472v113.603H71.836V143.199zm28.472 113.603h28.435v28.41h-28.435v-28.41zm0-142.05h28.435v28.41h-28.435v-28.41zm28.435 170.423h28.473v28.41h-28.473v-28.41zm0-198.796h28.473v28.41h-28.473v-28.41zm170.799 56.819h28.622v113.603h-28.472l-.15-113.603zm-28.473-28.41h28.473v28.41h-28.473v-28.41zm-28.472 170.423h28.472v28.41h-28.472v-28.41zm28.472-28.41h28.473v28.41h-28.473v-28.41zM242.597 86.415h28.472v28.373h-28.472V86.415z" fill="#25aae1"/></svg>