<?xml version="1.0" standalone="no"?>
<!DOCTYPE svg PUBLIC "-//W3C//DTD SVG 20010904//EN"
 "http://www.w3.org/TR/2001/REC-SVG-20010904/DTD/svg10.dtd">
<svg version="1.0" xmlns="http://www.w3.org/2000/svg"
 width="700.000000pt" height="700.000000pt" viewBox="0 0 700.000000 700.000000"
 preserveAspectRatio="xMidYMid meet">
<metadata>
Created by potrace 1.14, written by Peter Selinger 2001-2017
</metadata>
<g transform="translate(0.000000,700.000000) scale(0.100000,-0.100000)"
fill="#000000" stroke="none">
<path d="M2250 5240 l0 -250 -245 0 -245 0 0 -250 0 -250 -250 0 -250 0 0
-990 0 -990 248 -2 247 -3 3 -247 2 -248 245 0 245 0 0 -250 0 -250 250 0 250
0 0 250 0 250 -250 0 -250 0 0 250 0 250 -245 0 -245 0 0 990 0 990 245 0 245
0 0 250 0 250 250 0 250 0 0 250 0 250 -250 0 -250 0 0 -250z"/>
<path d="M4250 5240 l0 -250 245 0 245 0 2 -247 3 -248 248 -3 247 -2 0 -990
0 -990 -247 -2 -248 -3 -3 -247 -2 -248 -245 0 -245 0 0 -250 0 -250 245 0
245 0 0 250 0 250 250 0 250 0 0 250 0 250 250 0 250 0 0 990 0 990 -250 0
-250 0 0 250 0 250 -250 0 -250 0 0 250 0 250 -245 0 -245 0 0 -250z"/>
</g>
</svg>
